<svg version="1.1" xmlns="http://www.w3.org/2000/svg" xmlns:xlink="http://www.w3.org/1999/xlink" viewBox="0 0 81 80" xml:space="preserve">
<path d="M50.709,26.667c0,0-3.072,0-4.526,0c-1.805,0-2.182,0.736-2.182,2.593c0,1.546,0,4.074,0,4.074h6.708
	L50.009,40h-6.008v23.333H33.938V40h-6.709v-6.666h6.709c0,0,0-2.557,0-7.692c0-5.897,3.122-8.975,10.161-8.975
	c1.149,0,6.61,0,6.61,0V26.667z M40.647,0C18.418,0,0.395,17.908,0.395,40c0,22.092,18.023,40,40.252,40
	c22.229,0,40.251-17.908,40.251-40C80.898,17.908,62.875,0,40.647,0z"/>
</svg>
