<svg version="1.1" xmlns="http://www.w3.org/2000/svg" xmlns:xlink="http://www.w3.org/1999/xlink"
	 viewBox="0 0 81 80" xml:space="preserve">
<path d="M63.604,49.62c-0.387,8.484-5.14,13.184-13.657,13.573c-2.506,0.113-3.305,0.14-9.683,0.14
	c-6.378,0-7.174-0.027-9.68-0.14c-8.535-0.389-13.267-5.098-13.66-13.573c-0.115-2.488-0.141-3.282-0.141-9.621
	c0-6.336,0.026-7.13,0.141-9.621c0.393-8.481,5.13-13.184,13.66-13.571c2.506-0.114,3.302-0.142,9.68-0.142
	c6.377,0,7.177,0.027,9.683,0.142c8.535,0.389,13.273,5.105,13.657,13.571c0.114,2.49,0.141,3.285,0.141,9.621
	C63.744,46.338,63.718,47.132,63.604,49.62z M40.264,0C18.035,0,0.013,17.908,0.013,40c0,22.092,18.022,40,40.251,40
	c22.229,0,40.251-17.908,40.251-40C80.516,17.908,62.493,0,40.264,0z M48.091,40c0,4.297-3.505,7.777-7.827,7.777
	c-4.323,0-7.827-3.479-7.827-7.777c0-4.295,3.504-7.776,7.827-7.776C44.586,32.223,48.091,35.704,48.091,40z M52.798,30.345
	c-1.558,0-2.818-1.253-2.818-2.799c0-1.546,1.261-2.8,2.818-2.8c1.556,0,2.817,1.253,2.817,2.8
	C55.615,29.091,54.354,30.345,52.798,30.345z M40.264,51.982c-6.658,0-12.058-5.364-12.058-11.982c0-6.616,5.4-11.98,12.058-11.98
	c6.658,0,12.058,5.364,12.058,11.98C52.322,46.618,46.922,51.982,40.264,51.982z M49.753,21.007
	c-2.476-0.112-3.221-0.135-9.489-0.135c-6.269,0-7.01,0.023-9.486,0.135c-6.37,0.288-9.336,3.288-9.626,9.565
	c-0.111,2.459-0.137,3.197-0.137,9.427c0,6.23,0.026,6.968,0.137,9.429c0.29,6.265,3.245,9.276,9.626,9.566
	c2.473,0.11,3.218,0.135,9.486,0.135c6.271,0,7.013-0.025,9.489-0.135c6.37-0.289,9.333-3.294,9.626-9.566
	c0.111-2.46,0.134-3.198,0.134-9.429c0-6.23-0.022-6.967-0.134-9.427C59.086,24.295,56.117,21.295,49.753,21.007z"/>
</svg>
